<svg preserveAspectRatio="none" width="100%" height="100%" overflow="visible" style="display: block;" viewBox="0 0 98 98" fill="none" xmlns="http://www.w3.org/2000/svg">
<path id="Star 1" d="M49 0L53.2265 6.08764L58.5594 0.941521L61.5171 7.73673L67.7515 3.7299L69.3266 10.9716L76.2229 8.25799L76.355 15.6678L83.6482 14.3518L82.3322 21.645L89.742 21.7771L87.0284 28.6734L94.2701 30.2485L90.2633 36.4829L97.0585 39.4406L91.9124 44.7735L98 49L91.9124 53.2265L97.0585 58.5594L90.2633 61.5171L94.2701 67.7515L87.0284 69.3266L89.742 76.2229L82.3322 76.355L83.6482 83.6482L76.355 82.3322L76.2229 89.742L69.3266 87.0284L67.7515 94.2701L61.5171 90.2633L58.5594 97.0585L53.2265 91.9124L49 98L44.7735 91.9124L39.4406 97.0585L36.4829 90.2633L30.2485 94.2701L28.6734 87.0284L21.7771 89.742L21.645 82.3322L14.3518 83.6482L15.6678 76.355L8.25799 76.2229L10.9716 69.3266L3.7299 67.7515L7.73673 61.5171L0.941521 58.5594L6.08764 53.2265L0 49L6.08764 44.7735L0.941521 39.4406L7.73673 36.4829L3.7299 30.2485L10.9716 28.6734L8.25799 21.7771L15.6678 21.645L14.3518 14.3518L21.645 15.6678L21.7771 8.25799L28.6734 10.9716L30.2485 3.7299L36.4829 7.73673L39.4406 0.941521L44.7735 6.08764L49 0Z" fill="url(#paint0_linear_0_4)"/>
<defs>
<linearGradient id="paint0_linear_0_4" x1="49" y1="-4" x2="49" y2="98" gradientUnits="userSpaceOnUse">
<stop stop-color="#FFE8A3"/>
<stop offset="0.784314" stop-color="#AF8549"/>
</linearGradient>
</defs>
</svg>
