<svg preserveAspectRatio="none" width="100%" height="100%" overflow="visible" style="display: block;" viewBox="0 0 19 20" fill="none" xmlns="http://www.w3.org/2000/svg">
<g id="Asset 3 1" clip-path="url(#clip0_0_258)">
<path id="Union" d="M16.8724 2.95949C17.3053 2.61317 17.9518 2.75551 18.1917 3.24953C19.8449 6.62102 18.9474 11.4487 15.6409 15.2632C12.1466 19.2917 7.0777 20.9111 3.32257 19.5005C2.66542 19.256 2.56623 18.3908 3.15558 18.0191C3.15558 18.0146 3.16338 18.0142 3.16534 18.0142C4.24495 17.3266 5.35647 16.6179 6.9837 14.7437C8.61069 12.8697 9.14318 11.6778 9.65948 10.5269C10.1236 9.4881 10.5612 8.50487 11.9534 6.9009C13.346 5.29152 14.2646 4.71071 15.2347 4.08937L15.2396 4.09523C15.7559 3.76419 16.283 3.42803 16.8724 2.95949ZM3.30694 4.68019C6.86389 0.585765 12.0738 -0.987372 15.8079 0.637224C16.3973 0.896972 16.4916 1.68125 15.97 2.05812C15.6207 2.30761 15.292 2.51615 14.9583 2.73C13.8944 3.40731 12.7989 4.11005 11.1927 5.95851C9.58634 7.80722 9.06415 8.98394 8.55304 10.1196C8.09929 11.1433 7.66104 12.1109 6.28937 13.6948C4.91782 15.2786 4.01065 15.8543 3.05108 16.4653C2.75906 16.6538 2.46162 16.8423 2.14874 17.0562C1.73672 17.3414 1.15297 17.209 0.918272 16.771C-0.870625 13.4351 -0.0309582 8.53045 3.30694 4.68019Z" fill="var(--fill-0, #5298DD)"/>
</g>
<defs>
<clipPath id="clip0_0_258">
<rect width="19" height="20" fill="white"/>
</clipPath>
</defs>
</svg>
