<svg preserveAspectRatio="none" width="100%" height="100%" overflow="visible" style="display: block;" viewBox="0 0 19 20" fill="none" xmlns="http://www.w3.org/2000/svg">
<g id="Asset 4 1" clip-path="url(#clip0_0_266)">
<path id="Union" d="M16.9123 2.90062C17.3299 2.5955 17.9561 2.69748 18.217 3.20628C19.8873 6.565 18.9477 11.3993 15.6594 15.216C12.1623 19.2363 7.09922 20.8653 3.34102 19.4407C2.71466 19.1862 2.60966 18.3203 3.18379 17.9641C4.27995 17.3025 5.37621 16.5902 6.99434 14.7073C8.61239 12.8244 9.13449 11.6541 9.65645 10.4836C10.1262 9.46582 10.544 8.44795 11.9533 6.87035C13.3625 5.29292 14.2498 4.68214 15.2414 4.07152L15.2941 4.02074C15.8161 3.71539 16.3381 3.35863 16.9123 2.90062ZM3.28828 4.68187C6.8899 0.610737 12.0574 -0.966079 15.8156 0.662338C16.3898 0.916781 16.4948 1.73089 15.9729 2.08714C15.6597 2.3416 15.2939 2.54471 14.9807 2.74828C13.9368 3.40982 12.8409 4.07159 11.2229 5.95433C9.60491 7.83706 9.08266 9.00771 8.56074 10.1272C8.14316 11.145 7.67277 12.1121 6.31563 13.6897C4.95851 15.2672 4.01885 15.827 3.0793 16.4377C2.81834 16.6413 2.50572 16.8455 2.19258 17.0491C1.77503 17.3035 1.20067 17.2013 0.939651 16.7434C-0.887272 13.4355 -0.00017785 8.49866 3.28828 4.68187Z" fill="var(--fill-0, #D1D1D1)"/>
</g>
<defs>
<clipPath id="clip0_0_266">
<rect width="19" height="20" fill="white"/>
</clipPath>
</defs>
</svg>
